PathFileType	4	(X/Y/Z)	33_1_51_p1_0-299_filt_butterworth.trc
DataRate	CameraRate	NumFrames	NumMarkers	Units	OrigDataRate	OrigDataStartFrame	OrigNumFrames
59.0	59.0	6	27	m	59.0	186	299
Frame#	Time	RHip			RKnee			RAnkle			RBigToe			RSmallToe			RHeel			LHip			LKnee			LAnkle			LBigToe			LSmallToe			LHeel			Neck			Head			Nose			RShoulder			RElbow			RWrist			RThumb			RIndex			RPinky			LShoulder			LElbow			LWrist			LThumb			LIndex			LPinky			
		X1	Y1	Z1	X2	Y2	Z2	X3	Y3	Z3	X4	Y4	Z4	X5	Y5	Z5	X6	Y6	Z6	X7	Y7	Z7	X8	Y8	Z8	X9	Y9	Z9	X10	Y10	Z10	X11	Y11	Z11	X12	Y12	Z12	X13	Y13	Z13	X14	Y14	Z14	X15	Y15	Z15	X16	Y16	Z16	X17	Y17	Z17	X18	Y18	Z18	X19	Y19	Z19	X20	Y20	Z20	X21	Y21	Z21	X22	Y22	Z22	X23	Y23	Z23	X24	Y24	Z24	X25	Y25	Z25	X26	Y26	Z26	X27	Y27	Z27	
186	3.152542372881356	0.2519617256279724	0.3469882357474542	0.29707834988771825	0.2039984206001539	0.29632911104280973	0.6781588812396504	0.23978337959015622	0.6982668257097661	0.9450755374930925	0.2296969868638042	0.5828630545533826	1.0140809704052611	0.2743516605251557	0.6047411400376732	1.0016394318466681	0.225960797938836	0.8339313529235813	0.9804954531137234	0.04997136202534929	0.3337465367333705	0.2968887100638873	0.06898951441567969	0.31010187218551527	0.6742339007087427	0.1195636350467161	0.7119360543143458	0.9676132606407393	0.09508982372436295	0.5707160708837522	1.053994941252554	0.044446962349694925	0.6696649996076834	1.0476927320845828	0.11763903184436708	0.7974233000913303	0.9873411251496801	0.17721444861494423	0.03409434621858185	-0.17853034316905117	0.16125502438549452	-0.14459923719519596	-0.35231466059456173	0.15482323069368217	-0.12472455702828832	-0.2201932967119974	0.3295085653253792	0.0610062298401124	-0.1292555598910144	0.6024905617471273	0.030002018789030367	-0.058931225136928916	0.6389414772332459	-0.16198552098511446	-0.2313284263634492	0.5958569149026429	-0.23922770982018673	-0.31756857833469593	0.6293712357625136	-0.26803484166511826	-0.3213139885261362	0.6591443034930359	-0.26748547406622125	-0.2799173519556566	0.03586608151129786	0.07598299261932505	-0.1625421208208637	-0.20110260615936768	-0.0018238373407728997	-0.23324959042483573	-0.06637843135539334	-0.16651672381091256	-0.35711316422184974	0.04075901033807903	-0.2174056310881763	-0.381902469826086	0.035353205877594274	-0.22817977945728396	-0.4185134904074289	-0.028639111220890898	-0.2444676354029564	-0.40366849773816826
187	3.169491525423729	0.25108296556603504	0.34798321074675065	0.30155872623126423	0.19910809054009154	0.29446785717195917	0.682364280427598	0.2398176342601115	0.6979383467885196	0.9466398848707722	0.22359698106406228	0.5826449200937255	1.0152884387463754	0.2677625301069729	0.6015557485946653	1.0034590841352562	0.22475586263714298	0.8285370992484257	0.9814364318819191	0.049823326895331956	0.3351258850356035	0.30000698881374527	0.06807222444148413	0.30956843464445777	0.6785207760190994	0.11954974246162353	0.7143920399074821	0.9688451024314594	0.09503548774473276	0.569900280243536	1.054485341668755	0.04100784224880041	0.6723927330121086	1.049024627712488	0.11816617779399995	0.7994702755484747	0.9871748928904541	0.17807894448961153	0.0370031772500197	-0.17268094884894933	0.15817727174293925	-0.14330877244278598	-0.3445838078748552	0.15128424921450745	-0.12392610648097603	-0.21162898280623982	0.32801395899730884	0.06242175494891113	-0.12641324907045046	0.5998228922256266	0.008951204188904393	-0.05695707471708734	0.6241419934111353	-0.1776220176023664	-0.23004518632749352	0.5808159445540372	-0.2510112017129901	-0.3237976651926284	0.6134309183895166	-0.26856142050954496	-0.336863498308545	0.6471113535638675	-0.27430638689660203	-0.28850483278325456	0.03634655342339137	0.07947612873803077	-0.1594713615326876	-0.18958253984963885	-0.016170469345896898	-0.223451215025851	-0.05492144268596168	-0.17984211829222815	-0.35129874479659456	0.052954872281326906	-0.21932691036888063	-0.3807115832435912	0.05270960355296424	-0.22949131104411152	-0.4160685896965762	-0.01907221622426494	-0.24389474411765338	-0.40537612972103776
188	3.1864406779661016	0.2495142374101247	0.3500795229711467	0.30714585429094665	0.19633216580921226	0.29317076513224505	0.686246286571712	0.2402725581211776	0.6974147691665022	0.9472094591370102	0.21965484288117873	0.5798878489913628	1.01601699155848	0.263186904665374	0.6005273906881632	1.00547282294171	0.22419950897450486	0.8258568498950992	0.9817497567011557	0.04955680796504909	0.33745492886795014	0.3050363668089329	0.06592860282320621	0.31065300952033964	0.682558031508969	0.11928647388175276	0.715934568229125	0.9702460443138007	0.09456543845357963	0.5690122548239989	1.0555345554827742	0.037992958971721835	0.6735828878795898	1.0493974412063163	0.11830896495803425	0.800774045717715	0.98756729498653	0.1781568302787614	0.0404224684450638	-0.16629998812911193	0.15650251966536646	-0.14401517064206193	-0.33701905064569404	0.14929160009957254	-0.12128281567799264	-0.20256199800133445	0.3278828179838484	0.06412487277015852	-0.12431003848066215	0.595500522719119	-0.016499050071023466	-0.052217531030998986	0.6081184277734807	-0.19200865028149744	-0.22821400021862456	0.5637025570610492	-0.2659938967416416	-0.3273777883698614	0.5958958401543434	-0.2724742875811844	-0.34720564468999215	0.6320414931345498	-0.2750095061887643	-0.30127519464370045	0.03669968040582358	0.08407857450541144	-0.1557902702580079	-0.1799564009899405	-0.030757625825182176	-0.2146105614160171	-0.04304127316645108	-0.19591664099920453	-0.34390127250195834	0.06051896453416817	-0.22082929061971052	-0.37985140895891867	0.06468374201962206	-0.23120083475630537	-0.41253327271142837	-0.010830904047026012	-0.23826222018534093	-0.40955373993831184
189	3.2033898305084745	0.24768339005761497	0.35427642542128157	0.3132277952740398	0.19412612977673527	0.2928092903186406	0.6888948101664433	0.24044210878712208	0.6972823671357624	0.9470054058166202	0.21723354912228632	0.5744396910943971	1.0162677511160145	0.2605641476652793	0.5975440010787066	1.0066358008206975	0.22418752722523144	0.8258647320540484	0.9818566070177431	0.049256022653131115	0.340497508611103	0.311448915588631	0.06291313566637971	0.31412634562509284	0.6857511017384478	0.11897355196352719	0.7165591734940997	0.9709443644628891	0.09344304960219066	0.5679404152666951	1.056430765802067	0.036610050387474176	0.6718293693097273	1.048626347352985	0.11832583122864934	0.8018939244261744	0.9880905149675834	0.1787263638367352	0.04222092997646208	-0.15894221683071935	0.15644542118930382	-0.14373460531561189	-0.33103018815908836	0.1493204683715305	-0.11727616782995878	-0.19362412389745576	0.3284950323197403	0.06604527670882748	-0.12282394973721149	0.5907419908034373	-0.04023062241570357	-0.04637542240014073	0.5937211694982911	-0.20397188682906187	-0.22617344814340254	0.5450183766339158	-0.2766558103340346	-0.3295038425117417	0.5777296742207608	-0.28202629435663423	-0.34929023425828404	0.6142740639194301	-0.27292651177299243	-0.31500620532876433	0.03831246323232154	0.08865066420713016	-0.15068044695750307	-0.17391643843592397	-0.042682276311620894	-0.20728605380310117	-0.03305934698096074	-0.20807154418990675	-0.33724210144298367	0.06597016237228094	-0.22132319097395103	-0.37940055250777305	0.07185267924670637	-0.2311819025016142	-0.4089222800356275	-0.002834596021000311	-0.22887405963797952	-0.4140970952618188
190	3.2203389830508478	0.24568838611742255	0.36059577195583176	0.318420527793946	0.1912601616996593	0.2931910523964157	0.69017611540901	0.23949254021788666	0.698802034865014	0.9468133012444255	0.21538547499551558	0.5686137940021943	1.0159932349197607	0.25845250125242997	0.5922948164566287	1.0065059766287212	0.22403732903238402	0.8262983184947421	0.9820996339285281	0.049050009327553115	0.3435616891095625	0.31786964715111476	0.059667109902498475	0.31721972319975644	0.6878286055633144	0.1187852251659175	0.7164284195701262	0.970169379457261	0.09223593279318296	0.5667058461400409	1.056080191433325	0.03693401480341279	0.6666113919124672	1.0467677486839397	0.11829502207007697	0.8042881079620972	0.9880337389460381	0.1800531463622472	0.04194201072096166	-0.1510415544403144	0.15823137448414967	-0.1420206094074535	-0.3263346715052392	0.15179999753154258	-0.11307485588009808	-0.18502010150677986	0.32906215274822004	0.06759051849248654	-0.12099167859889401	0.5866965848152711	-0.056610170051494685	-0.04171287260349989	0.580917307551375	-0.21667889502635723	-0.22269905138713628	0.5261784220083816	-0.2771733043109257	-0.3329516756098845	0.5589336295332514	-0.2941426011200342	-0.34539660951182505	0.5958484555252255	-0.2755118843700735	-0.3225869603243092	0.04093602404814984	0.0929972618562978	-0.14413601238295057	-0.1702254704839446	-0.05206143741760643	-0.20052881520916988	-0.02633813148219701	-0.2136026430402479	-0.33214313213922186	0.07138914296971699	-0.2212971615867877	-0.37843587155525593	0.07567124002498632	-0.22971848365843686	-0.405600006307239	0.004431420924491338	-0.2179153379501218	-0.41750849170943494
191	3.23728813559322	0.243676910889053	0.3674688483653061	0.32231878270979963	0.18810250419668542	0.2946279310851154	0.6905130037071611	0.23695430073156848	0.7026880379165193	0.946930808737062	0.2140436232821621	0.5636979972863545	1.0145800046912448	0.25589846269663497	0.5862569960403372	1.0050602361220797	0.22249537109212583	0.8263098009365603	0.9822479266792071	0.048996101526546286	0.34646392909270163	0.32402255078038195	0.056388700743618236	0.31779373811581946	0.6885773591096387	0.1188320897340159	0.7155996772244496	0.9673508547712121	0.0918827309271129	0.5656611320283175	1.0537441571476183	0.03878202739319281	0.6597395843138418	1.0443699005771825	0.11819519550052504	0.8087182111515163	0.9868945890328937	0.18096698992325463	0.040725294814264804	-0.14325429002637932	0.16167107745977025	-0.14048544719670172	-0.32170745954979635	0.1562727579522997	-0.1100621015240485	-0.17713618838092487	0.32962245230068293	0.06924924232770024	-0.11759238898218694	0.5835899036731746	-0.06422322605862413	-0.03858256224913688	0.5668537669223667	-0.22990753207789089	-0.21767301656813148	0.5086478391868373	-0.27107802315255686	-0.33519479270374447	0.5389993196505753	-0.3014316638471123	-0.34129918828062245	0.5783526690995949	-0.285501135841696	-0.32122504130780444	0.043065908204145034	0.09679807111250206	-0.13689011470209522	-0.16666568965932774	-0.05988564296407242	-0.19297781809237657	-0.022475104040305116	-0.21473779052445108	-0.32774340579862216	0.07709633593913409	-0.22132391047588215	-0.37583273762850006	0.07718371860878964	-0.2274907167102717	-0.40237153870444387	0.01025572538617523	-0.2083459142902206	-0.41913221011702495
